<mxfile host="app.diagrams.net" modified="2022-08-05T07:50:13.230Z" agent="5.0 (Windows NT 10.0; Win64; x64) AppleWebKit/537.36 (KHTML, like Gecko) Chrome/80.0.3987.100 Safari/537.36" etag="cY9o5DrAq9U10uuu6SFV" version="17.2.5" type="github">
  <diagram id="yVeXle2LPUaicNYPNFlM" name="Page-1">
    <mxGraphModel dx="1289" dy="705" grid="1" gridSize="10" guides="1" tooltips="1" connect="1" arrows="1" fold="1" page="1" pageScale="1" pageWidth="827" pageHeight="1169" math="0" shadow="0">
      <root>
        <mxCell id="0" />
        <mxCell id="1" parent="0" />
        <mxCell id="rQUu4i_vPEp-lecvEWJC-1" value="&lt;div style=&quot;&quot;&gt;&lt;span&gt;MDC 610&lt;/span&gt;&lt;/div&gt;" style="rounded=0;whiteSpace=wrap;html=1;align=left;verticalAlign=top;" vertex="1" parent="1">
          <mxGeometry x="64" y="220" width="520" height="455" as="geometry" />
        </mxCell>
        <mxCell id="rQUu4i_vPEp-lecvEWJC-2" value="SOC" style="rounded=0;whiteSpace=wrap;html=1;align=left;verticalAlign=top;" vertex="1" parent="1">
          <mxGeometry x="94" y="260" width="450" height="380" as="geometry" />
        </mxCell>
        <mxCell id="rQUu4i_vPEp-lecvEWJC-26" value="匿名ID接口" style="edgeStyle=orthogonalEdgeStyle;rounded=0;orthogonalLoop=1;jettySize=auto;html=1;exitX=1;exitY=0.25;exitDx=0;exitDy=0;entryX=0;entryY=0.25;entryDx=0;entryDy=0;" edge="1" parent="1" source="rQUu4i_vPEp-lecvEWJC-3" target="rQUu4i_vPEp-lecvEWJC-6">
          <mxGeometry relative="1" as="geometry" />
        </mxCell>
        <mxCell id="rQUu4i_vPEp-lecvEWJC-3" value="Config_Service" style="rounded=0;whiteSpace=wrap;html=1;fillColor=#dae8fc;strokeColor=#6c8ebf;" vertex="1" parent="1">
          <mxGeometry x="114" y="300" width="120" height="110" as="geometry" />
        </mxCell>
        <mxCell id="rQUu4i_vPEp-lecvEWJC-27" value="故障上报接口" style="edgeStyle=orthogonalEdgeStyle;rounded=0;orthogonalLoop=1;jettySize=auto;html=1;entryX=1;entryY=0.75;entryDx=0;entryDy=0;exitX=0;exitY=0.75;exitDx=0;exitDy=0;" edge="1" parent="1" source="rQUu4i_vPEp-lecvEWJC-6" target="rQUu4i_vPEp-lecvEWJC-3">
          <mxGeometry relative="1" as="geometry" />
        </mxCell>
        <mxCell id="rQUu4i_vPEp-lecvEWJC-34" value="SOMEIP&amp;nbsp;&lt;br&gt;播发服务" style="edgeStyle=orthogonalEdgeStyle;rounded=0;orthogonalLoop=1;jettySize=auto;html=1;exitX=0.25;exitY=1;exitDx=0;exitDy=0;entryX=0.25;entryY=0;entryDx=0;entryDy=0;" edge="1" parent="1" source="rQUu4i_vPEp-lecvEWJC-6" target="rQUu4i_vPEp-lecvEWJC-28">
          <mxGeometry relative="1" as="geometry" />
        </mxCell>
        <mxCell id="rQUu4i_vPEp-lecvEWJC-39" style="edgeStyle=orthogonalEdgeStyle;rounded=0;orthogonalLoop=1;jettySize=auto;html=1;exitX=1;exitY=0.25;exitDx=0;exitDy=0;entryX=0;entryY=0.25;entryDx=0;entryDy=0;" edge="1" parent="1" source="rQUu4i_vPEp-lecvEWJC-6" target="rQUu4i_vPEp-lecvEWJC-37">
          <mxGeometry relative="1" as="geometry" />
        </mxCell>
        <mxCell id="rQUu4i_vPEp-lecvEWJC-41" style="edgeStyle=orthogonalEdgeStyle;rounded=0;orthogonalLoop=1;jettySize=auto;html=1;exitX=1;exitY=0.75;exitDx=0;exitDy=0;entryX=0;entryY=0.75;entryDx=0;entryDy=0;" edge="1" parent="1" source="rQUu4i_vPEp-lecvEWJC-6" target="rQUu4i_vPEp-lecvEWJC-37">
          <mxGeometry relative="1" as="geometry" />
        </mxCell>
        <mxCell id="rQUu4i_vPEp-lecvEWJC-6" value="APP" style="rounded=0;whiteSpace=wrap;html=1;align=center;verticalAlign=middle;fillColor=#fff2cc;strokeColor=#d6b656;" vertex="1" parent="1">
          <mxGeometry x="344" y="300" width="170" height="110" as="geometry" />
        </mxCell>
        <mxCell id="rQUu4i_vPEp-lecvEWJC-24" value="" style="group" vertex="1" connectable="0" parent="1">
          <mxGeometry x="960" y="280" width="400" height="290" as="geometry" />
        </mxCell>
        <mxCell id="rQUu4i_vPEp-lecvEWJC-15" value="APP" style="rounded=0;whiteSpace=wrap;html=1;align=left;verticalAlign=top;fillColor=#fff2cc;strokeColor=#d6b656;" vertex="1" parent="rQUu4i_vPEp-lecvEWJC-24">
          <mxGeometry width="400" height="290" as="geometry" />
        </mxCell>
        <mxCell id="rQUu4i_vPEp-lecvEWJC-16" value="软件版本管理" style="shape=module;align=left;spacingLeft=20;align=center;verticalAlign=top;" vertex="1" parent="rQUu4i_vPEp-lecvEWJC-24">
          <mxGeometry x="270" y="90" width="100" height="50" as="geometry" />
        </mxCell>
        <mxCell id="rQUu4i_vPEp-lecvEWJC-17" value="匿名ID获取" style="shape=module;align=left;spacingLeft=20;align=center;verticalAlign=top;" vertex="1" parent="rQUu4i_vPEp-lecvEWJC-24">
          <mxGeometry x="30" y="20" width="100" height="50" as="geometry" />
        </mxCell>
        <mxCell id="rQUu4i_vPEp-lecvEWJC-18" value="星历数据获取" style="shape=module;align=left;spacingLeft=20;align=center;verticalAlign=top;" vertex="1" parent="rQUu4i_vPEp-lecvEWJC-24">
          <mxGeometry x="30" y="160" width="100" height="50" as="geometry" />
        </mxCell>
        <mxCell id="rQUu4i_vPEp-lecvEWJC-19" value="差分数据获取" style="shape=module;align=left;spacingLeft=20;align=center;verticalAlign=top;" vertex="1" parent="rQUu4i_vPEp-lecvEWJC-24">
          <mxGeometry x="30" y="230" width="100" height="50" as="geometry" />
        </mxCell>
        <mxCell id="rQUu4i_vPEp-lecvEWJC-20" value="故障状态上报" style="shape=module;align=left;spacingLeft=20;align=center;verticalAlign=top;" vertex="1" parent="rQUu4i_vPEp-lecvEWJC-24">
          <mxGeometry x="30" y="90" width="100" height="50" as="geometry" />
        </mxCell>
        <mxCell id="rQUu4i_vPEp-lecvEWJC-21" value="状态日志记录" style="shape=module;align=left;spacingLeft=20;align=center;verticalAlign=top;" vertex="1" parent="rQUu4i_vPEp-lecvEWJC-24">
          <mxGeometry x="270" y="20" width="100" height="50" as="geometry" />
        </mxCell>
        <mxCell id="rQUu4i_vPEp-lecvEWJC-22" value="原始位置&#xa;数据获取" style="shape=module;align=left;spacingLeft=20;align=center;verticalAlign=top;" vertex="1" parent="rQUu4i_vPEp-lecvEWJC-24">
          <mxGeometry x="270" y="230" width="100" height="50" as="geometry" />
        </mxCell>
        <mxCell id="rQUu4i_vPEp-lecvEWJC-23" value="SOMEIP&#xa;数据播发" style="shape=module;align=left;spacingLeft=20;align=center;verticalAlign=top;" vertex="1" parent="rQUu4i_vPEp-lecvEWJC-24">
          <mxGeometry x="270" y="160" width="100" height="50" as="geometry" />
        </mxCell>
        <mxCell id="rQUu4i_vPEp-lecvEWJC-33" style="edgeStyle=orthogonalEdgeStyle;rounded=0;orthogonalLoop=1;jettySize=auto;html=1;exitX=0;exitY=0.75;exitDx=0;exitDy=0;entryX=1;entryY=0.75;entryDx=0;entryDy=0;" edge="1" parent="1" source="rQUu4i_vPEp-lecvEWJC-25" target="rQUu4i_vPEp-lecvEWJC-28">
          <mxGeometry relative="1" as="geometry" />
        </mxCell>
        <mxCell id="rQUu4i_vPEp-lecvEWJC-25" value="高精定位模块" style="rounded=0;whiteSpace=wrap;html=1;align=center;verticalAlign=middle;" vertex="1" parent="1">
          <mxGeometry x="644" y="499" width="120" height="130" as="geometry" />
        </mxCell>
        <mxCell id="rQUu4i_vPEp-lecvEWJC-32" style="edgeStyle=orthogonalEdgeStyle;rounded=0;orthogonalLoop=1;jettySize=auto;html=1;exitX=1;exitY=0.25;exitDx=0;exitDy=0;entryX=0;entryY=0.25;entryDx=0;entryDy=0;" edge="1" parent="1" source="rQUu4i_vPEp-lecvEWJC-28" target="rQUu4i_vPEp-lecvEWJC-25">
          <mxGeometry relative="1" as="geometry" />
        </mxCell>
        <mxCell id="rQUu4i_vPEp-lecvEWJC-36" value="Gnss Raw Data&lt;br&gt;接口" style="edgeStyle=orthogonalEdgeStyle;rounded=0;orthogonalLoop=1;jettySize=auto;html=1;exitX=0.75;exitY=0;exitDx=0;exitDy=0;entryX=0.75;entryY=1;entryDx=0;entryDy=0;" edge="1" parent="1" source="rQUu4i_vPEp-lecvEWJC-28" target="rQUu4i_vPEp-lecvEWJC-6">
          <mxGeometry relative="1" as="geometry" />
        </mxCell>
        <mxCell id="rQUu4i_vPEp-lecvEWJC-28" value="域控通信接口" style="rounded=0;whiteSpace=wrap;html=1;fillColor=#dae8fc;strokeColor=#6c8ebf;" vertex="1" parent="1">
          <mxGeometry x="344" y="499" width="170" height="130" as="geometry" />
        </mxCell>
        <mxCell id="rQUu4i_vPEp-lecvEWJC-40" value="Core SDK 交互" style="edgeStyle=orthogonalEdgeStyle;rounded=0;orthogonalLoop=1;jettySize=auto;html=1;exitX=0;exitY=0.25;exitDx=0;exitDy=0;entryX=1;entryY=0.25;entryDx=0;entryDy=0;" edge="1" parent="1" source="rQUu4i_vPEp-lecvEWJC-37" target="rQUu4i_vPEp-lecvEWJC-6">
          <mxGeometry relative="1" as="geometry" />
        </mxCell>
        <mxCell id="rQUu4i_vPEp-lecvEWJC-42" value="Agnss SDK 交互" style="edgeStyle=orthogonalEdgeStyle;rounded=0;orthogonalLoop=1;jettySize=auto;html=1;exitX=0;exitY=0.75;exitDx=0;exitDy=0;entryX=1;entryY=0.75;entryDx=0;entryDy=0;" edge="1" parent="1" source="rQUu4i_vPEp-lecvEWJC-37" target="rQUu4i_vPEp-lecvEWJC-6">
          <mxGeometry relative="1" as="geometry" />
        </mxCell>
        <mxCell id="rQUu4i_vPEp-lecvEWJC-37" value="六分 RTK 服务云" style="rounded=0;whiteSpace=wrap;html=1;align=center;verticalAlign=middle;" vertex="1" parent="1">
          <mxGeometry x="644" y="300" width="120" height="110" as="geometry" />
        </mxCell>
      </root>
    </mxGraphModel>
  </diagram>
</mxfile>
